<?xml version="1.0" standalone="no"?>
<!DOCTYPE svg PUBLIC "-//W3C//DTD SVG 20010904//EN"
 "http://www.w3.org/TR/2001/REC-SVG-20010904/DTD/svg10.dtd">
<svg version="1.0" xmlns="http://www.w3.org/2000/svg"
 width="92.000000pt" height="109.000000pt" viewBox="0 0 92.000000 109.000000"
 preserveAspectRatio="xMidYMid meet">

<g transform="translate(0.000000,109.000000) scale(0.100000,-0.100000)"
fill="#000000" stroke="none">
<path d="M237 1054 c-16 -9 -54 -18 -85 -21 -50 -5 -130 -38 -119 -49 2 -3 33
-7 68 -10 72 -7 111 -26 131 -62 17 -33 15 -100 -5 -139 -22 -41 -22 -135 -1
-198 13 -36 24 -50 45 -59 16 -6 29 -15 29 -20 0 -16 71 -116 90 -126 10 -5
25 -24 34 -41 17 -34 15 -40 -57 -159 -31 -50 -37 -55 -69 -55 -26 0 -34 -4
-31 -15 6 -23 101 -21 114 3 6 10 22 17 39 17 17 0 30 5 30 10 0 6 -11 10 -25
10 -41 0 -39 23 6 97 25 41 44 85 47 111 5 47 4 46 35 30 53 -30 57 -38 57
-108 0 -101 -35 -180 -81 -180 -9 0 -19 -9 -22 -19 -4 -16 0 -18 27 -15 17 3
46 5 65 4 27 0 31 2 22 13 -13 17 -13 53 2 130 12 61 27 76 27 27 0 -16 5 -42
11 -57 25 -62 50 -111 62 -121 16 -13 77 -27 102 -23 11 2 41 2 68 2 47 -2 47
-1 41 26 -4 15 -16 46 -26 67 -18 35 -18 38 -3 32 15 -5 17 -1 13 24 -3 20 0
30 9 30 7 0 13 2 13 5 0 3 -25 42 -55 86 -53 78 -67 108 -44 93 26 -16 -5 75
-64 190 -53 103 -74 132 -149 207 -65 65 -89 97 -98 128 -15 56 -69 124 -110
138 -48 16 -110 15 -143 -3z m61 -65 c-2 -6 -8 -10 -13 -10 -5 0 -11 4 -13 10
-2 6 4 11 13 11 9 0 15 -5 13 -11z"/>
</g>
</svg>
